<svg width="44" height="40" viewBox="0 0 44 40" fill="none" xmlns="http://www.w3.org/2000/svg">
<g clip-path="url(#clip0_18283_53)">
<path d="M43.9407 39.4565H42.5684V38.0652H43.9407V39.4565Z" fill="#ECD979"/>
<path d="M42.5696 39.4565H41.1973V38.0652H42.5696V39.4565Z" fill="#ECD979"/>
<path d="M37.0794 39.4565H35.707V38.0652H37.0794V39.4565Z" fill="#ECD979"/>
<path d="M35.7063 39.4565H34.334V38.0652H35.7063V39.4565Z" fill="#ECD979"/>
<path d="M34.3352 39.4565H32.9629V38.0652H34.3352V39.4565Z" fill="#ECD979"/>
<path d="M26.1008 39.4565H24.7285V38.0652H26.1008V39.4565Z" fill="#ECD979"/>
<path d="M17.8665 39.4565H16.4941V38.0652H17.8665V39.4565Z" fill="#ECD979"/>
<path d="M9.63404 39.4565H8.26172V38.0652H9.63404V39.4565Z" fill="#ECD979"/>
<path d="M8.26099 39.4565H6.88867V38.0652H8.26099V39.4565Z" fill="#ECD979"/>
<path d="M6.88794 39.4565H5.51562V38.0652H6.88794V39.4565Z" fill="#ECD979"/>
<path d="M1.39966 39.4565H0.0273438V38.0652H1.39966V39.4565Z" fill="#ECD979"/>
<path d="M43.9407 38.0652H42.5684V36.6739H43.9407V38.0652Z" fill="#ECD979"/>
<path d="M38.4504 38.0652H37.0781V36.6739H38.4504V38.0652Z" fill="#ECD979"/>
<path d="M37.0794 38.0652H35.707V36.6739H37.0794V38.0652Z" fill="#ECD979"/>
<path d="M35.7063 38.0652H34.334V36.6739H35.7063V38.0652Z" fill="#ECD979"/>
<path d="M26.1008 38.0652H24.7285V36.6739H26.1008V38.0652Z" fill="#ECD979"/>
<path d="M24.7278 38.0652H23.3555V36.6739H24.7278V38.0652Z" fill="#ECD979"/>
<path d="M19.2395 38.0652H17.8672V36.6739H19.2395V38.0652Z" fill="#ECD979"/>
<path d="M17.8665 38.0652H16.4941V36.6739H17.8665V38.0652Z" fill="#ECD979"/>
<path d="M8.26099 38.0652H6.88867V36.6739H8.26099V38.0652Z" fill="#ECD979"/>
<path d="M6.88794 38.0652H5.51562V36.6739H6.88794V38.0652Z" fill="#ECD979"/>
<path d="M5.51685 38.0652H4.14453V36.6739H5.51685V38.0652Z" fill="#ECD979"/>
<path d="M39.8254 36.6738H38.4531V35.2825H39.8254V36.6738Z" fill="#ECD979"/>
<path d="M38.4504 36.6738H37.0781V35.2825H38.4504V36.6738Z" fill="#ECD979"/>
<path d="M37.0794 36.6739H35.707V35.2826H37.0794V36.6739Z" fill="#ECD979"/>
<path d="M26.1008 36.6739H24.7285V35.2826H26.1008V36.6739Z" fill="#ECD979"/>
<path d="M24.7278 36.6738H23.3555V35.2825H24.7278V36.6738Z" fill="#ECD979"/>
<path d="M23.3567 36.6738H21.9844V35.2825H23.3567V36.6738Z" fill="#ECD979"/>
<path d="M20.6106 36.6738H19.2383V35.2825H20.6106V36.6738Z" fill="#ECD979"/>
<path d="M19.2395 36.6739H17.8672V35.2826H19.2395V36.6739Z" fill="#ECD979"/>
<path d="M17.8665 36.6738H16.4941V35.2825H17.8665V36.6738Z" fill="#ECD979"/>
<path d="M6.88794 36.6738H5.51562V35.2825H6.88794V36.6738Z" fill="#ECD979"/>
<path d="M5.51685 36.6739H4.14453V35.2826H5.51685V36.6739Z" fill="#ECD979"/>
<path d="M4.1438 36.6739H2.77148V35.2826H4.1438V36.6739Z" fill="#ECD979"/>
<path d="M41.1965 35.2826H39.8242V33.8913H41.1965V35.2826Z" fill="#ECD979"/>
<path d="M39.8254 35.2827H38.4531V33.8914H39.8254V35.2827Z" fill="#ECD979"/>
<path d="M38.4504 35.2827H37.0781V33.8914H38.4504V35.2827Z" fill="#ECD979"/>
<path d="M31.5911 35.2827H30.2188V33.8914H31.5911V35.2827Z" fill="#ECD979"/>
<path d="M30.218 35.2826H28.8457V33.8913H30.218V35.2826Z" fill="#ECD979"/>
<path d="M28.845 35.2827H27.4727V33.8914H28.845V35.2827Z" fill="#ECD979"/>
<path d="M24.7278 35.2827H23.3555V33.8914H24.7278V35.2827Z" fill="#ECD979"/>
<path d="M23.3567 35.2827H21.9844V33.8914H23.3567V35.2827Z" fill="#ECD979"/>
<path d="M20.6106 35.2827H19.2383V33.8914H20.6106V35.2827Z" fill="#ECD979"/>
<path d="M19.2395 35.2826H17.8672V33.8913H19.2395V35.2826Z" fill="#ECD979"/>
<path d="M15.1223 35.2826H13.75V33.8913H15.1223V35.2826Z" fill="#ECD979"/>
<path d="M13.7512 35.2827H12.3789V33.8914H13.7512V35.2827Z" fill="#ECD979"/>
<path d="M12.3782 35.2826H11.0059V33.8913H12.3782V35.2826Z" fill="#ECD979"/>
<path d="M5.51685 35.2826H4.14453V33.8913H5.51685V35.2826Z" fill="#ECD979"/>
<path d="M4.1438 35.2826H2.77148V33.8913H4.1438V35.2826Z" fill="#ECD979"/>
<path d="M2.77271 35.2827H1.40039V33.8914H2.77271V35.2827Z" fill="#ECD979"/>
<path d="M42.5696 33.8913H41.1973V32.5H42.5696V33.8913Z" fill="#ECD979"/>
<path d="M41.1965 33.8913H39.8242V32.5H41.1965V33.8913Z" fill="#ECD979"/>
<path d="M39.8254 33.8913H38.4531V32.5H39.8254V33.8913Z" fill="#ECD979"/>
<path d="M30.218 33.8913H28.8457V32.5H30.218V33.8913Z" fill="#ECD979"/>
<path d="M28.845 33.8913H27.4727V32.5H28.845V33.8913Z" fill="#ECD979"/>
<path d="M27.4739 33.8913H26.1016V32.5H27.4739V33.8913Z" fill="#ECD979"/>
<path d="M23.3567 33.8913H21.9844V32.5H23.3567V33.8913Z" fill="#ECD979"/>
<path d="M20.6106 33.8913H19.2383V32.5H20.6106V33.8913Z" fill="#ECD979"/>
<path d="M16.4954 33.8913H15.123V32.5H16.4954V33.8913Z" fill="#ECD979"/>
<path d="M15.1223 33.8913H13.75V32.5H15.1223V33.8913Z" fill="#ECD979"/>
<path d="M13.7512 33.8913H12.3789V32.5H13.7512V33.8913Z" fill="#ECD979"/>
<path d="M4.1438 33.8913H2.77148V32.5H4.1438V33.8913Z" fill="#ECD979"/>
<path d="M2.77271 33.8913H1.40039V32.5H2.77271V33.8913Z" fill="#ECD979"/>
<path d="M1.39966 33.8913H0.0273438V32.5H1.39966V33.8913Z" fill="#ECD979"/>
<path d="M42.5696 32.5H41.1973V31.1087H42.5696V32.5Z" fill="#ECD979"/>
<path d="M41.1965 32.5H39.8242V31.1087H41.1965V32.5Z" fill="#ECD979"/>
<path d="M28.845 32.5H27.4727V31.1087H28.845V32.5Z" fill="#ECD979"/>
<path d="M27.4739 32.5H26.1016V31.1087H27.4739V32.5Z" fill="#ECD979"/>
<path d="M26.1008 32.5H24.7285V31.1087H26.1008V32.5Z" fill="#ECD979"/>
<path d="M17.8665 32.5H16.4941V31.1087H17.8665V32.5Z" fill="#ECD979"/>
<path d="M16.4954 32.5H15.123V31.1087H16.4954V32.5Z" fill="#ECD979"/>
<path d="M15.1223 32.5H13.75V31.1087H15.1223V32.5Z" fill="#ECD979"/>
<path d="M2.77271 32.5H1.40039V31.1087H2.77271V32.5Z" fill="#ECD979"/>
<path d="M1.39966 32.5H0.0273438V31.1087H1.39966V32.5Z" fill="#ECD979"/>
<path d="M42.5696 31.1086H41.1973V29.7173H42.5696V31.1086Z" fill="#ECD979"/>
<path d="M35.7063 31.1086H34.334V29.7173H35.7063V31.1086Z" fill="#ECD979"/>
<path d="M23.3567 31.1086H21.9844V29.7173H23.3567V31.1086Z" fill="#ECD979"/>
<path d="M20.6106 31.1086H19.2383V29.7173H20.6106V31.1086Z" fill="#ECD979"/>
<path d="M8.26099 31.1087H6.88867V29.7174H8.26099V31.1087Z" fill="#ECD979"/>
<path d="M1.39966 31.1087H0.0273438V29.7174H1.39966V31.1087Z" fill="#ECD979"/>
<path d="M35.7063 29.7175H34.334V28.3262H35.7063V29.7175Z" fill="#ECD979"/>
<path d="M34.3352 29.7174H32.9629V28.3261H34.3352V29.7174Z" fill="#ECD979"/>
<path d="M24.7278 29.7173H23.3555V28.326H24.7278V29.7173Z" fill="#ECD979"/>
<path d="M23.3567 29.7173H21.9844V28.326H23.3567V29.7173Z" fill="#ECD979"/>
<path d="M20.6106 29.7173H19.2383V28.326H20.6106V29.7173Z" fill="#ECD979"/>
<path d="M19.2395 29.7174H17.8672V28.3261H19.2395V29.7174Z" fill="#ECD979"/>
<path d="M9.63404 29.7173H8.26172V28.326H9.63404V29.7173Z" fill="#ECD979"/>
<path d="M8.26099 29.7174H6.88867V28.3261H8.26099V29.7174Z" fill="#ECD979"/>
<path d="M35.7063 28.3261H34.334V26.9348H35.7063V28.3261Z" fill="#ECD979"/>
<path d="M34.3352 28.3261H32.9629V26.9348H34.3352V28.3261Z" fill="#ECD979"/>
<path d="M32.9622 28.3261H31.5898V26.9348H32.9622V28.3261Z" fill="#ECD979"/>
<path d="M26.1008 28.3261H24.7285V26.9348H26.1008V28.3261Z" fill="#ECD979"/>
<path d="M24.7278 28.3261H23.3555V26.9348H24.7278V28.3261Z" fill="#ECD979"/>
<path d="M19.2395 28.3261H17.8672V26.9348H19.2395V28.3261Z" fill="#ECD979"/>
<path d="M17.8665 28.3261H16.4941V26.9348H17.8665V28.3261Z" fill="#ECD979"/>
<path d="M11.0051 28.3261H9.63281V26.9348H11.0051V28.3261Z" fill="#ECD979"/>
<path d="M9.63404 28.3261H8.26172V26.9348H9.63404V28.3261Z" fill="#ECD979"/>
<path d="M8.26099 28.3261H6.88867V26.9348H8.26099V28.3261Z" fill="#ECD979"/>
<path d="M34.3352 26.9348H32.9629V25.5435H34.3352V26.9348Z" fill="#ECD979"/>
<path d="M32.9622 26.9348H31.5898V25.5435H32.9622V26.9348Z" fill="#ECD979"/>
<path d="M27.4739 26.9348H26.1016V25.5435H27.4739V26.9348Z" fill="#ECD979"/>
<path d="M26.1008 26.9348H24.7285V25.5435H26.1008V26.9348Z" fill="#ECD979"/>
<path d="M17.8665 26.9348H16.4941V25.5435H17.8665V26.9348Z" fill="#ECD979"/>
<path d="M16.4954 26.9348H15.123V25.5435H16.4954V26.9348Z" fill="#ECD979"/>
<path d="M11.0051 26.9348H9.63281V25.5435H11.0051V26.9348Z" fill="#ECD979"/>
<path d="M9.63404 26.9348H8.26172V25.5435H9.63404V26.9348Z" fill="#ECD979"/>
<path d="M39.8254 25.5434H38.4531V24.1521H39.8254V25.5434Z" fill="#ECD979"/>
<path d="M38.4504 25.5434H37.0781V24.1521H38.4504V25.5434Z" fill="#ECD979"/>
<path d="M37.0794 25.5435H35.707V24.1522H37.0794V25.5435Z" fill="#ECD979"/>
<path d="M32.9622 25.5435H31.5898V24.1522H32.9622V25.5435Z" fill="#ECD979"/>
<path d="M28.845 25.5434H27.4727V24.1521H28.845V25.5434Z" fill="#ECD979"/>
<path d="M27.4739 25.5434H26.1016V24.1521H27.4739V25.5434Z" fill="#ECD979"/>
<path d="M16.4954 25.5435H15.123V24.1522H16.4954V25.5435Z" fill="#ECD979"/>
<path d="M15.1223 25.5435H13.75V24.1522H15.1223V25.5435Z" fill="#ECD979"/>
<path d="M11.0051 25.5434H9.63281V24.1521H11.0051V25.5434Z" fill="#ECD979"/>
<path d="M6.88794 25.5434H5.51562V24.1521H6.88794V25.5434Z" fill="#ECD979"/>
<path d="M5.51685 25.5435H4.14453V24.1522H5.51685V25.5435Z" fill="#ECD979"/>
<path d="M4.1438 25.5435H2.77148V24.1522H4.1438V25.5435Z" fill="#ECD979"/>
<path d="M43.9407 24.1522H42.5684V22.7609H43.9407V24.1522Z" fill="#ECD979"/>
<path d="M38.4504 24.1521H37.0781V22.7608H38.4504V24.1521Z" fill="#ECD979"/>
<path d="M37.0794 24.1522H35.707V22.7609H37.0794V24.1522Z" fill="#ECD979"/>
<path d="M35.7063 24.1521H34.334V22.7608H35.7063V24.1521Z" fill="#ECD979"/>
<path d="M30.218 24.1522H28.8457V22.7609H30.218V24.1522Z" fill="#ECD979"/>
<path d="M28.845 24.1521H27.4727V22.7608H28.845V24.1521Z" fill="#ECD979"/>
<path d="M15.1223 24.1522H13.75V22.7609H15.1223V24.1522Z" fill="#ECD979"/>
<path d="M13.7512 24.1521H12.3789V22.7608H13.7512V24.1521Z" fill="#ECD979"/>
<path d="M8.26099 24.1522H6.88867V22.7609H8.26099V24.1522Z" fill="#ECD979"/>
<path d="M6.88794 24.1521H5.51562V22.7608H6.88794V24.1521Z" fill="#ECD979"/>
<path d="M5.51685 24.1522H4.14453V22.7609H5.51685V24.1522Z" fill="#ECD979"/>
<path d="M43.9407 22.7609H42.5684V21.3696H43.9407V22.7609Z" fill="#ECD979"/>
<path d="M42.5696 22.761H41.1973V21.3697H42.5696V22.761Z" fill="#ECD979"/>
<path d="M37.0794 22.7609H35.707V21.3696H37.0794V22.7609Z" fill="#ECD979"/>
<path d="M35.7063 22.761H34.334V21.3697H35.7063V22.761Z" fill="#ECD979"/>
<path d="M34.3352 22.7609H32.9629V21.3696H34.3352V22.7609Z" fill="#ECD979"/>
<path d="M31.5911 22.761H30.2188V21.3697H31.5911V22.761Z" fill="#ECD979"/>
<path d="M30.218 22.7609H28.8457V21.3696H30.218V22.7609Z" fill="#ECD979"/>
<path d="M21.9856 22.761H20.6133V21.3697H21.9856V22.761Z" fill="#ECD979"/>
<path d="M13.7512 22.761H12.3789V21.3697H13.7512V22.761Z" fill="#ECD979"/>
<path d="M12.3782 22.7609H11.0059V21.3696H12.3782V22.7609Z" fill="#ECD979"/>
<path d="M9.63404 22.761H8.26172V21.3697H9.63404V22.761Z" fill="#ECD979"/>
<path d="M8.26099 22.7609H6.88867V21.3696H8.26099V22.7609Z" fill="#ECD979"/>
<path d="M6.88794 22.761H5.51562V21.3697H6.88794V22.761Z" fill="#ECD979"/>
<path d="M1.37232 21.3696H0V19.9783H1.37232V21.3696Z" fill="#ECD979"/>
<path d="M2.77271 21.3696H1.40039V19.9783H2.77271V21.3696Z" fill="#ECD979"/>
<path d="M1.37232 22.7609H0V21.3696H1.37232V22.7609Z" fill="#ECD979"/>
<path d="M1.37232 19.9783H0V18.587H1.37232V19.9783Z" fill="#ECD979"/>
<path d="M43.9407 21.3696H42.5684V19.9783H43.9407V21.3696Z" fill="#ECD979"/>
<path d="M42.5696 21.3696H41.1973V19.9783H42.5696V21.3696Z" fill="#ECD979"/>
<path d="M41.1965 21.3696H39.8242V19.9783H41.1965V21.3696Z" fill="#ECD979"/>
<path d="M23.3567 21.3696H21.9844V19.9783H23.3567V21.3696Z" fill="#ECD979"/>
<path d="M21.9856 21.3696H20.6133V19.9783H21.9856V21.3696Z" fill="#ECD979"/>
<path d="M20.6106 21.3696H19.2383V19.9783H20.6106V21.3696Z" fill="#ECD979"/>
<path d="M43.9407 19.9783H42.5684V18.587H43.9407V19.9783Z" fill="#ECD979"/>
<path d="M42.5696 19.9782H41.1973V18.5869H42.5696V19.9782Z" fill="#ECD979"/>
<path d="M37.0794 19.9783H35.707V18.587H37.0794V19.9783Z" fill="#ECD979"/>
<path d="M35.7063 19.9782H34.334V18.5869H35.7063V19.9782Z" fill="#ECD979"/>
<path d="M34.3352 19.9783H32.9629V18.587H34.3352V19.9783Z" fill="#ECD979"/>
<path d="M31.5911 19.9782H30.2188V18.5869H31.5911V19.9782Z" fill="#ECD979"/>
<path d="M30.218 19.9783H28.8457V18.587H30.218V19.9783Z" fill="#ECD979"/>
<path d="M21.9856 19.9782H20.6133V18.5869H21.9856V19.9782Z" fill="#ECD979"/>
<path d="M13.7512 19.9782H12.3789V18.5869H13.7512V19.9782Z" fill="#ECD979"/>
<path d="M12.3782 19.9783H11.0059V18.587H12.3782V19.9783Z" fill="#ECD979"/>
<path d="M9.63404 19.9782H8.26172V18.5869H9.63404V19.9782Z" fill="#ECD979"/>
<path d="M8.26099 19.9783H6.88867V18.587H8.26099V19.9783Z" fill="#ECD979"/>
<path d="M6.88794 19.9782H5.51562V18.5869H6.88794V19.9782Z" fill="#ECD979"/>
<path d="M43.9407 18.5869H42.5684V17.1956H43.9407V18.5869Z" fill="#ECD979"/>
<path d="M38.4504 18.5869H37.0781V17.1956H38.4504V18.5869Z" fill="#ECD979"/>
<path d="M37.0794 18.5869H35.707V17.1956H37.0794V18.5869Z" fill="#ECD979"/>
<path d="M35.7063 18.5869H34.334V17.1956H35.7063V18.5869Z" fill="#ECD979"/>
<path d="M30.218 18.5869H28.8457V17.1956H30.218V18.5869Z" fill="#ECD979"/>
<path d="M28.845 18.5869H27.4727V17.1956H28.845V18.5869Z" fill="#ECD979"/>
<path d="M15.1223 18.5869H13.75V17.1956H15.1223V18.5869Z" fill="#ECD979"/>
<path d="M13.7512 18.5869H12.3789V17.1956H13.7512V18.5869Z" fill="#ECD979"/>
<path d="M8.26099 18.5869H6.88867V17.1956H8.26099V18.5869Z" fill="#ECD979"/>
<path d="M6.88794 18.5869H5.51562V17.1956H6.88794V18.5869Z" fill="#ECD979"/>
<path d="M5.51685 18.5869H4.14453V17.1956H5.51685V18.5869Z" fill="#ECD979"/>
<path d="M39.8254 17.1958H38.4531V15.8045H39.8254V17.1958Z" fill="#ECD979"/>
<path d="M38.4504 17.1958H37.0781V15.8045H38.4504V17.1958Z" fill="#ECD979"/>
<path d="M37.0794 17.1956H35.707V15.8043H37.0794V17.1956Z" fill="#ECD979"/>
<path d="M32.9622 17.1956H31.5898V15.8043H32.9622V17.1956Z" fill="#ECD979"/>
<path d="M28.845 17.1958H27.4727V15.8045H28.845V17.1958Z" fill="#ECD979"/>
<path d="M27.4739 17.1958H26.1016V15.8045H27.4739V17.1958Z" fill="#ECD979"/>
<path d="M16.4954 17.1956H15.123V15.8043H16.4954V17.1956Z" fill="#ECD979"/>
<path d="M15.1223 17.1956H13.75V15.8043H15.1223V17.1956Z" fill="#ECD979"/>
<path d="M11.0051 17.1958H9.63281V15.8045H11.0051V17.1958Z" fill="#ECD979"/>
<path d="M6.88794 17.1955H5.51562V15.8042H6.88794V17.1955Z" fill="#ECD979"/>
<path d="M5.51685 17.1956H4.14453V15.8043H5.51685V17.1956Z" fill="#ECD979"/>
<path d="M4.1438 17.1956H2.77148V15.8043H4.1438V17.1956Z" fill="#ECD979"/>
<path d="M34.3352 15.8044H32.9629V14.413H34.3352V15.8044Z" fill="#ECD979"/>
<path d="M32.9622 15.8044H31.5898V14.413H32.9622V15.8044Z" fill="#ECD979"/>
<path d="M27.4739 15.8044H26.1016V14.4131H27.4739V15.8044Z" fill="#ECD979"/>
<path d="M26.1008 15.8044H24.7285V14.413H26.1008V15.8044Z" fill="#ECD979"/>
<path d="M17.8665 15.8044H16.4941V14.4131H17.8665V15.8044Z" fill="#ECD979"/>
<path d="M16.4954 15.8044H15.123V14.413H16.4954V15.8044Z" fill="#ECD979"/>
<path d="M11.0051 15.8044H9.63281V14.4131H11.0051V15.8044Z" fill="#ECD979"/>
<path d="M9.63404 15.8044H8.26172V14.4131H9.63404V15.8044Z" fill="#ECD979"/>
<path d="M35.7063 14.4131H34.334V13.0218H35.7063V14.4131Z" fill="#ECD979"/>
<path d="M34.3352 14.413H32.9629V13.0217H34.3352V14.413Z" fill="#ECD979"/>
<path d="M32.9622 14.413H31.5898V13.0217H32.9622V14.413Z" fill="#ECD979"/>
<path d="M26.1008 14.413H24.7285V13.0217H26.1008V14.413Z" fill="#ECD979"/>
<path d="M24.7278 14.4131H23.3555V13.0218H24.7278V14.4131Z" fill="#ECD979"/>
<path d="M19.2395 14.413H17.8672V13.0217H19.2395V14.413Z" fill="#ECD979"/>
<path d="M17.8665 14.4131H16.4941V13.0218H17.8665V14.4131Z" fill="#ECD979"/>
<path d="M11.0051 14.4131H9.63281V13.0218H11.0051V14.4131Z" fill="#ECD979"/>
<path d="M9.63404 14.4131H8.26172V13.0218H9.63404V14.4131Z" fill="#ECD979"/>
<path d="M8.26099 14.413H6.88867V13.0217H8.26099V14.413Z" fill="#ECD979"/>
<path d="M35.7063 13.0217H34.334V11.6304H35.7063V13.0217Z" fill="#ECD979"/>
<path d="M34.3352 13.0217H32.9629V11.6304H34.3352V13.0217Z" fill="#ECD979"/>
<path d="M24.7278 13.0217H23.3555V11.6304H24.7278V13.0217Z" fill="#ECD979"/>
<path d="M23.3567 13.0217H21.9844V11.6304H23.3567V13.0217Z" fill="#ECD979"/>
<path d="M20.6106 13.0217H19.2383V11.6304H20.6106V13.0217Z" fill="#ECD979"/>
<path d="M19.2395 13.0217H17.8672V11.6304H19.2395V13.0217Z" fill="#ECD979"/>
<path d="M9.63404 13.0217H8.26172V11.6304H9.63404V13.0217Z" fill="#ECD979"/>
<path d="M8.26099 13.0217H6.88867V11.6304H8.26099V13.0217Z" fill="#ECD979"/>
<path d="M35.7063 11.6303H34.334V10.239H35.7063V11.6303Z" fill="#ECD979"/>
<path d="M23.3567 11.6303H21.9844V10.239H23.3567V11.6303Z" fill="#ECD979"/>
<path d="M20.6106 11.6303H19.2383V10.239H20.6106V11.6303Z" fill="#ECD979"/>
<path d="M8.26099 11.6304H6.88867V10.2391H8.26099V11.6304Z" fill="#ECD979"/>
<path d="M42.5696 10.2392H41.1973V8.84792H42.5696V10.2392Z" fill="#ECD979"/>
<path d="M1.39966 10.2391H0.0273438V8.8478H1.39966V10.2391Z" fill="#ECD979"/>
<path d="M42.5696 8.84787H41.1973V7.45657H42.5696V8.84787Z" fill="#ECD979"/>
<path d="M41.1965 8.84781H39.8242V7.4565H41.1965V8.84781Z" fill="#ECD979"/>
<path d="M28.845 8.84787H27.4727V7.45657H28.845V8.84787Z" fill="#ECD979"/>
<path d="M27.4739 8.84787H26.1016V7.45657H27.4739V8.84787Z" fill="#ECD979"/>
<path d="M26.1008 8.84781H24.7285V7.4565H26.1008V8.84781Z" fill="#ECD979"/>
<path d="M17.8665 8.84787H16.4941V7.45657H17.8665V8.84787Z" fill="#ECD979"/>
<path d="M16.4954 8.84781H15.123V7.4565H16.4954V8.84781Z" fill="#ECD979"/>
<path d="M15.1223 8.84781H13.75V7.4565H15.1223V8.84781Z" fill="#ECD979"/>
<path d="M2.77271 8.84787H1.40039V7.45657H2.77271V8.84787Z" fill="#ECD979"/>
<path d="M1.39966 8.84781H0.0273438V7.4565H1.39966V8.84781Z" fill="#ECD979"/>
<path d="M42.5696 7.45651H41.1973V6.06521H42.5696V7.45651Z" fill="#ECD979"/>
<path d="M41.1965 7.45651H39.8242V6.06521H41.1965V7.45651Z" fill="#ECD979"/>
<path d="M39.8254 7.45651H38.4531V6.06521H39.8254V7.45651Z" fill="#ECD979"/>
<path d="M30.218 7.45651H28.8457V6.06521H30.218V7.45651Z" fill="#ECD979"/>
<path d="M28.845 7.45651H27.4727V6.06521H28.845V7.45651Z" fill="#ECD979"/>
<path d="M27.4739 7.45651H26.1016V6.06521H27.4739V7.45651Z" fill="#ECD979"/>
<path d="M23.3567 7.45651H21.9844V6.06521H23.3567V7.45651Z" fill="#ECD979"/>
<path d="M20.6106 7.45651H19.2383V6.06521H20.6106V7.45651Z" fill="#ECD979"/>
<path d="M16.4954 7.45651H15.123V6.06521H16.4954V7.45651Z" fill="#ECD979"/>
<path d="M15.1223 7.45651H13.75V6.06521H15.1223V7.45651Z" fill="#ECD979"/>
<path d="M13.7512 7.45651H12.3789V6.06521H13.7512V7.45651Z" fill="#ECD979"/>
<path d="M4.1438 7.45651H2.77148V6.06521H4.1438V7.45651Z" fill="#ECD979"/>
<path d="M2.77271 7.45651H1.40039V6.06521H2.77271V7.45651Z" fill="#ECD979"/>
<path d="M1.39966 7.45651H0.0273438V6.06521H1.39966V7.45651Z" fill="#ECD979"/>
<path d="M41.1965 6.06522H39.8242V4.67391H41.1965V6.06522Z" fill="#ECD979"/>
<path d="M39.8254 6.06516H38.4531V4.67385H39.8254V6.06516Z" fill="#ECD979"/>
<path d="M38.4504 6.06516H37.0781V4.67385H38.4504V6.06516Z" fill="#ECD979"/>
<path d="M31.5911 6.06516H30.2188V4.67385H31.5911V6.06516Z" fill="#ECD979"/>
<path d="M30.218 6.06522H28.8457V4.67391H30.218V6.06522Z" fill="#ECD979"/>
<path d="M28.845 6.06516H27.4727V4.67385H28.845V6.06516Z" fill="#ECD979"/>
<path d="M24.7278 6.06516H23.3555V4.67385H24.7278V6.06516Z" fill="#ECD979"/>
<path d="M23.3567 6.06516H21.9844V4.67385H23.3567V6.06516Z" fill="#ECD979"/>
<path d="M20.6106 6.06516H19.2383V4.67385H20.6106V6.06516Z" fill="#ECD979"/>
<path d="M19.2395 6.06522H17.8672V4.67391H19.2395V6.06522Z" fill="#ECD979"/>
<path d="M15.1223 6.06522H13.75V4.67391H15.1223V6.06522Z" fill="#ECD979"/>
<path d="M13.7512 6.06516H12.3789V4.67385H13.7512V6.06516Z" fill="#ECD979"/>
<path d="M12.3782 6.06522H11.0059V4.67391H12.3782V6.06522Z" fill="#ECD979"/>
<path d="M5.51685 6.06522H4.14453V4.67391H5.51685V6.06522Z" fill="#ECD979"/>
<path d="M4.1438 6.06522H2.77148V4.67391H4.1438V6.06522Z" fill="#ECD979"/>
<path d="M2.77271 6.06516H1.40039V4.67385H2.77271V6.06516Z" fill="#ECD979"/>
<path d="M39.8254 4.6738H38.4531V3.28249H39.8254V4.6738Z" fill="#ECD979"/>
<path d="M38.4504 4.6738H37.0781V3.28249H38.4504V4.6738Z" fill="#ECD979"/>
<path d="M37.0794 4.67389H35.707V3.28259H37.0794V4.67389Z" fill="#ECD979"/>
<path d="M26.1008 4.67389H24.7285V3.28259H26.1008V4.67389Z" fill="#ECD979"/>
<path d="M24.7278 4.6738H23.3555V3.28249H24.7278V4.6738Z" fill="#ECD979"/>
<path d="M23.3567 4.6738H21.9844V3.28249H23.3567V4.6738Z" fill="#ECD979"/>
<path d="M20.6106 4.6738H19.2383V3.28249H20.6106V4.6738Z" fill="#ECD979"/>
<path d="M19.2395 4.67389H17.8672V3.28259H19.2395V4.67389Z" fill="#ECD979"/>
<path d="M17.8665 4.6738H16.4941V3.28249H17.8665V4.6738Z" fill="#ECD979"/>
<path d="M6.88794 4.6738H5.51562V3.28249H6.88794V4.6738Z" fill="#ECD979"/>
<path d="M5.51685 4.67389H4.14453V3.28259H5.51685V4.67389Z" fill="#ECD979"/>
<path d="M4.1438 4.67389H2.77148V3.28259H4.1438V4.67389Z" fill="#ECD979"/>
<path d="M43.9407 3.28259H42.5684V1.89129H43.9407V3.28259Z" fill="#ECD979"/>
<path d="M38.4504 3.28268H37.0781V1.89138H38.4504V3.28268Z" fill="#ECD979"/>
<path d="M37.0794 3.28259H35.707V1.89129H37.0794V3.28259Z" fill="#ECD979"/>
<path d="M35.7063 3.28268H34.334V1.89138H35.7063V3.28268Z" fill="#ECD979"/>
<path d="M26.1008 3.28259H24.7285V1.89129H26.1008V3.28259Z" fill="#ECD979"/>
<path d="M24.7278 3.28268H23.3555V1.89138H24.7278V3.28268Z" fill="#ECD979"/>
<path d="M19.2395 3.28259H17.8672V1.89129H19.2395V3.28259Z" fill="#ECD979"/>
<path d="M17.8665 3.28268H16.4941V1.89138H17.8665V3.28268Z" fill="#ECD979"/>
<path d="M8.26099 3.28259H6.88867V1.89129H8.26099V3.28259Z" fill="#ECD979"/>
<path d="M6.88794 3.28268H5.51562V1.89138H6.88794V3.28268Z" fill="#ECD979"/>
<path d="M5.51685 3.28259H4.14453V1.89129H5.51685V3.28259Z" fill="#ECD979"/>
<path d="M43.9407 1.8913H42.5684V0.499992H43.9407V1.8913Z" fill="#ECD979"/>
<path d="M42.5696 1.89133H41.1973V0.500023H42.5696V1.89133Z" fill="#ECD979"/>
<path d="M37.0794 1.8913H35.707V0.499992H37.0794V1.8913Z" fill="#ECD979"/>
<path d="M35.7063 1.89133H34.334V0.500023H35.7063V1.89133Z" fill="#ECD979"/>
<path d="M34.3352 1.8913H32.9629V0.499992H34.3352V1.8913Z" fill="#ECD979"/>
<path d="M26.1008 1.8913H24.7285V0.499992H26.1008V1.8913Z" fill="#ECD979"/>
<path d="M17.8665 1.89133H16.4941V0.500023H17.8665V1.89133Z" fill="#ECD979"/>
<path d="M9.63404 1.89133H8.26172V0.500023H9.63404V1.89133Z" fill="#ECD979"/>
<path d="M8.26099 1.8913H6.88867V0.499992H8.26099V1.8913Z" fill="#ECD979"/>
<path d="M6.88794 1.89133H5.51562V0.500023H6.88794V1.89133Z" fill="#ECD979"/>
<path d="M1.39966 1.8913H0.0273438V0.499992H1.39966V1.8913Z" fill="#ECD979"/>
</g>
<defs>
<clipPath id="clip0_18283_53">
<rect width="44" height="39" fill="white" transform="translate(0 0.5)"/>
</clipPath>
</defs>
</svg>
